<?xml version="1.0" encoding="UTF-8"?>
<svg id="Laag_1" xmlns="http://www.w3.org/2000/svg" version="1.1" xmlns:xlink="http://www.w3.org/1999/xlink" viewBox="0 0 302 440">
  <!-- Generator: Adobe Illustrator 29.3.1, SVG Export Plug-In . SVG Version: 2.1.0 Build 151)  -->
  <defs>
    <style>
      .st0 {
        stroke: #7030a0;
      }

      .st0, .st1, .st2, .st3, .st4, .st5, .st6 {
        fill: none;
      }

      .st0, .st1, .st2, .st3, .st4, .st6 {
        stroke-linejoin: round;
      }

      .st0, .st1, .st2, .st4, .st6 {
        stroke-linecap: round;
        stroke-width: 2.3px;
      }

      .st1 {
        stroke: red;
      }

      .st7 {
        fill: #7030a0;
      }

      .st2 {
        stroke: #00b0f0;
      }

      .st3 {
        stroke: #000;
        stroke-width: .7px;
      }

      .st4 {
        stroke: #00b050;
      }

      .st8 {
        fill: red;
      }

      .st9 {
        fill: #00b050;
      }

      .st6 {
        stroke: #ffc000;
      }

      .st10 {
        fill: #ffc000;
      }

      .st11 {
        clip-path: url(#clippath);
      }

      .st12 {
        fill: #00b0f0;
      }
    </style>
    <clipPath id="clippath">
      <rect class="st5" x="57.9" y="114.6" width="160.2" height="307.8"/>
    </clipPath>
  </defs>
  <g>
    <path d="M230.4,119.7h-1.3l-3-3.5c0,0,0-.1-.1-.2,0,0,0,0,0-.1h0v3.8h-.9v-7.7h.9v3.6h0s0,0,0-.1c0,0,0,0,.1-.1l2.9-3.4h1.1l-3.3,3.7,3.5,4h0Z"/>
    <path d="M231.3,119.7v-8.2h.9v8.2h-.9Z"/>
    <path d="M237.8,119.7h-.9v-.9h0c-.2.3-.4.6-.7.7-.3.2-.6.2-1,.2s-.9-.1-1.2-.4-.5-.7-.5-1.2.2-.9.5-1.2.8-.5,1.4-.6l1.6-.2h0c0-.6-.1-.9-.3-1.1s-.5-.3-.9-.3-.6,0-.8.2c-.3.1-.5.3-.8.5l-.5-.5c.3-.3.6-.5,1-.7.3-.1.7-.2,1.2-.2.7,0,1.2.2,1.5.5.3.3.5.9.5,1.5v3.6h0ZM236.9,117.4v-.6l-1.3.2c-.4,0-.7.2-.9.3s-.3.4-.3.7,0,.6.3.8.4.3.7.3c.5,0,.9-.2,1.1-.5s.4-.7.4-1.2h0Z"/>
    <path d="M239,119.3l.4-.7c.2.2.5.3.7.4s.5.1.7.1c.4,0,.7,0,.9-.2s.3-.4.3-.6,0-.4-.3-.6c-.2-.2-.5-.3-.8-.4-.7-.2-1.2-.4-1.4-.7-.2-.3-.4-.6-.4-1s.2-.8.5-1.1.8-.5,1.4-.5.6,0,.8.1c.3,0,.5.2.8.4l-.4.7c-.2-.2-.5-.3-.7-.3s-.4,0-.6,0c-.4,0-.6,0-.8.2-.2.1-.3.3-.3.6s0,.4.3.6c.2.1.5.2.9.4.6.1,1,.4,1.3.6s.4.6.4,1.1-.2.9-.5,1.2-.8.4-1.5.4-.7,0-1-.1-.6-.2-.9-.4h0Z"/>
    <path d="M243.8,119.3l.4-.7c.2.2.5.3.7.4s.5.1.7.1c.4,0,.7,0,.9-.2s.3-.4.3-.6,0-.4-.3-.6c-.2-.2-.5-.3-.8-.4-.7-.2-1.2-.4-1.4-.7-.2-.3-.4-.6-.4-1s.2-.8.5-1.1.8-.5,1.4-.5.6,0,.8.1c.3,0,.5.2.8.4l-.4.7c-.2-.2-.5-.3-.7-.3s-.4,0-.6,0c-.4,0-.6,0-.8.2-.2.1-.3.3-.3.6s0,.4.3.6c.2.1.5.2.9.4.6.1,1,.4,1.3.6s.4.6.4,1.1-.2.9-.5,1.2-.8.4-1.5.4-.7,0-1-.1-.6-.2-.9-.4h0Z"/>
    <path d="M253.5,117.1h-3.9c0,.6.2,1.1.5,1.4s.8.5,1.3.5.5,0,.8-.1.5-.2.7-.4l.4.6c-.3.2-.6.4-.9.4s-.7.1-1,.1c-.8,0-1.5-.2-2-.7-.5-.5-.7-1.2-.7-2.1s.2-1.6.7-2.1c.5-.5,1.1-.8,1.8-.8s1.3.2,1.7.7c.4.5.6,1.1.6,1.9v.4h0ZM252.6,116.4c0-.5-.1-.9-.4-1.2-.2-.3-.6-.4-1-.4s-.8.1-1.1.4c-.3.3-.5.7-.5,1.2h3Z"/>
    <path d="M259.2,114.2l-2.2,5.5h-.9l-2.1-5.5h1l1.4,4c0,.1,0,.3.1.4s0,.2,0,.4h0c0-.1,0-.3,0-.4,0-.1,0-.2,0-.4l1.5-4h1Z"/>
    <path d="M262.4,119.8c-.8,0-1.5-.3-2-.8-.5-.5-.7-1.2-.7-2.1s.2-1.6.8-2.2,1.2-.8,2.1-.8c.8,0,1.5.2,1.9.8s.7,1.2.7,2.1-.2,1.6-.8,2.1-1.2.8-2,.8h0ZM262.4,119.1c.6,0,1-.2,1.3-.6s.5-.9.5-1.6-.2-1.2-.5-1.6-.8-.6-1.3-.6-1,.2-1.3.6-.5.9-.5,1.6.2,1.2.5,1.6.8.6,1.3.6h0Z"/>
    <path d="M266.5,119.7v-8.2h.9v8.2h-.9Z"/>
  </g>
  <g>
    <path d="M224.3,170.2l.4-.7c.3.2.6.4.9.4.3,0,.7.1,1.1.1s.9-.1,1.2-.3.4-.5.4-1-.1-.7-.4-.9c-.3-.2-.7-.4-1.3-.7-.7-.3-1.3-.6-1.6-.9s-.5-.8-.5-1.3.2-1.1.7-1.5c.4-.4,1.1-.6,1.8-.6s.7,0,1,.1.7.2,1,.4l-.3.7c-.3-.1-.6-.2-.9-.3s-.6,0-.9,0c-.5,0-.8.1-1.1.3s-.4.5-.4.9.1.6.4.8.7.4,1.2.6c.8.3,1.3.6,1.7.9s.5.8.5,1.4-.2,1.1-.7,1.6c-.4.4-1.1.6-1.9.6s-.9,0-1.3-.2c-.4-.1-.8-.3-1.2-.6h0Z"/>
    <path d="M233.4,170.7c-.2,0-.3.1-.4.1-.2,0-.3,0-.5,0-.4,0-.8-.1-1-.4s-.4-.6-.4-1.1v-3.4h-.9v-.8h.9v-1.4l.9-.3v1.6h1.4v.8h-1.4v3.3c0,.3,0,.5.2.7s.3.2.5.2.2,0,.3,0c0,0,.2,0,.2,0l.2.7h0Z"/>
    <path d="M238.9,168.2h-3.9c0,.6.2,1.1.5,1.4s.8.5,1.3.5.5,0,.8-.1.5-.2.7-.4l.4.6c-.3.2-.6.4-.9.4s-.7.1-1,.1c-.8,0-1.5-.2-1.9-.7-.5-.5-.7-1.2-.7-2.1s.2-1.6.7-2.1c.5-.5,1.1-.8,1.8-.8s1.3.2,1.7.7.6,1.1.6,1.9v.4h0ZM238,167.5c0-.5-.1-.9-.4-1.2-.2-.3-.6-.4-1-.4s-.8.1-1.1.4c-.3.3-.5.7-.5,1.2h3Z"/>
    <path d="M243,166c0,0-.1,0-.2,0,0,0-.1,0-.2,0-.5,0-.8.2-1.1.6s-.4.9-.4,1.4v2.8h-.9v-5.5h.9v1.1h0c.1-.4.3-.7.6-.9.3-.2.6-.3.9-.3s.2,0,.3,0,.2,0,.2,0c0,0-.2.8-.1.8Z"/>
    <path d="M244.5,164c-.2,0-.3,0-.5-.2s-.2-.3-.2-.4,0-.3.2-.4.3-.2.5-.2.3,0,.5.2.2.3.2.4,0,.3-.2.4-.3.2-.5.2ZM244.9,170.8h-.9v-5.5h.9v5.5Z"/>
    <path d="M251.2,168.2h-3.9c0,.6.2,1.1.5,1.4s.8.5,1.3.5.5,0,.8-.1.5-.2.7-.4l.4.6c-.3.2-.6.4-.9.4s-.7.1-1,.1c-.8,0-1.5-.2-2-.7-.5-.5-.7-1.2-.7-2.1s.2-1.6.7-2.1c.5-.5,1.1-.8,1.8-.8s1.3.2,1.7.7c.4.5.6,1.1.6,1.9v.4h0ZM250.3,167.5c0-.5-.1-.9-.4-1.2-.2-.3-.6-.4-1-.4s-.8.1-1.1.4c-.3.3-.5.7-.5,1.2h3Z"/>
    <path d="M252.6,170.8v-8.2h.9v8.2h-.9Z"/>
  </g>
  <g>
    <path d="M229.1,221.9h-4.1v-7.7h3.9v.8h-3v2.6h2.8v.8h-2.8v2.7h3.2v.8h0Z"/>
    <path d="M235,221.9h-.9v-3.1c0-.6-.1-1-.3-1.3-.2-.3-.5-.4-1-.4s-.8.2-1.1.5-.4.8-.4,1.3v3.1h-.9v-5.5h.9v.9h0c.2-.4.5-.6.8-.8s.7-.3,1-.3c.6,0,1.1.2,1.4.6s.5.9.5,1.7v3.4h0Z"/>
    <path d="M241.2,219.4h-3.9c0,.6.2,1.1.5,1.4s.8.5,1.3.5.5,0,.8-.1.5-.2.7-.4l.4.6c-.3.2-.6.4-.9.4s-.7.1-1,.1c-.8,0-1.5-.2-2-.7-.5-.5-.7-1.2-.7-2.1s.2-1.6.7-2.1c.5-.5,1.1-.8,1.8-.8s1.3.2,1.7.7c.4.5.6,1.1.6,1.9v.4h0ZM240.2,218.6c0-.5-.1-.9-.4-1.2-.2-.3-.6-.4-1-.4s-.8.1-1.1.4c-.3.3-.5.7-.5,1.2h3Z"/>
    <path d="M245.2,217.2c0,0-.1,0-.2,0,0,0-.1,0-.2,0-.5,0-.8.2-1.1.6s-.4.9-.4,1.4v2.8h-.9v-5.5h.9v1.1h0c.1-.4.3-.7.6-.9.3-.2.6-.3.9-.3s.2,0,.3,0,.2,0,.2,0c0,0-.2.8-.1.8Z"/>
    <path d="M251.1,221.6c0,1-.2,1.7-.7,2.2s-1.2.7-2,.7-.7,0-1-.1-.7-.2-1-.4l.3-.7c.3.1.6.2.8.3s.6,0,.9,0c.6,0,1-.2,1.4-.5s.5-.8.5-1.5v-.8h0c-.2.4-.5.6-.8.8-.3.2-.7.3-1.1.3-.7,0-1.2-.2-1.7-.7-.4-.5-.6-1.1-.6-2s.2-1.6.7-2.2,1.1-.9,1.8-.9.7,0,1,.2.5.4.7.7h0v-.8h.9v5.2h0ZM250.2,219.4v-.8c0-.4-.2-.8-.4-1.1s-.7-.5-1.1-.5-1,.2-1.3.6c-.3.4-.5.9-.5,1.7s.1,1.2.4,1.5c.3.4.7.5,1.2.5s.9-.2,1.2-.5c.3-.4.5-.8.5-1.4h0Z"/>
    <path d="M253.3,215.1c-.2,0-.3,0-.5-.2s-.2-.3-.2-.4,0-.3.2-.4.3-.2.5-.2.3,0,.5.2.2.3.2.4,0,.3-.2.4-.3.2-.5.2ZM253.7,221.9h-.9v-5.5h.9v5.5Z"/>
    <path d="M259.9,219.4h-3.9c0,.6.2,1.1.5,1.4s.8.5,1.3.5.5,0,.8-.1.5-.2.7-.4l.4.6c-.3.2-.6.4-.9.4s-.7.1-1,.1c-.8,0-1.5-.2-2-.7-.5-.5-.7-1.2-.7-2.1s.2-1.6.7-2.1c.5-.5,1.1-.8,1.8-.8s1.3.2,1.7.7c.4.5.6,1.1.6,1.9v.4h0ZM259,218.6c0-.5-.1-.9-.4-1.2-.2-.3-.6-.4-1-.4s-.8.1-1.1.4c-.3.3-.5.7-.5,1.2h3Z"/>
    <path d="M265.9,221.9h-1.2l-2.4-2.6h0v2.6h-.9v-8.2h.9v5.2h0l2.3-2.5h1.2l-2.6,2.7,2.8,2.9h0Z"/>
  </g>
  <g>
    <path d="M229.1,273h-4.1v-7.7h3.9v.8h-3v2.6h2.8v.8h-2.8v2.7h3.2v.8h0Z"/>
    <path d="M234.5,267.5l-1.8,2.8,1.8,2.7h-1l-1.1-1.8c0,0,0-.1-.1-.2s0-.1-.1-.2h0s0,0,0,.1,0,.2-.2.3l-1.1,1.8h-1l1.9-2.7-1.8-2.8h1l1.1,1.9c0,0,0,.1.1.2,0,0,0,.1.1.2h0c0,0,0-.1.1-.2,0,0,0-.1.1-.2l1.1-1.9h1,0Z"/>
    <path d="M236.5,272.2h0v3.3h-.9v-8.1h.9v1h0c.2-.4.5-.6.8-.8.3-.2.7-.3,1.1-.3.7,0,1.3.2,1.7.7s.6,1.2.6,2-.2,1.7-.7,2.2c-.5.5-1.1.8-1.8.8s-.7,0-.9-.2c-.3-.1-.5-.4-.7-.7h0ZM236.4,270v.8c0,.5.2.8.4,1.2.3.3.7.5,1.1.5s1-.2,1.3-.6c.3-.4.5-1,.5-1.7s-.1-1.1-.4-1.5c-.3-.4-.7-.5-1.2-.5s-.9.2-1.2.5-.5.8-.5,1.3h0Z"/>
    <path d="M244.7,268.3c0,0-.1,0-.2,0,0,0-.1,0-.2,0-.5,0-.8.2-1.1.6-.3.4-.4.9-.4,1.4v2.8h-.9v-5.5h.9v1.1h0c.1-.4.3-.7.6-.9.3-.2.6-.3.9-.3s.2,0,.3,0,.2,0,.2,0c0,0-.2.8-.1.8Z"/>
    <path d="M250.1,270.5h-3.9c0,.6.2,1.1.5,1.4s.8.5,1.3.5.5,0,.8-.1c.2,0,.5-.2.7-.4l.4.6c-.3.2-.6.4-.9.4s-.7.1-1,.1c-.8,0-1.5-.2-2-.7s-.7-1.2-.7-2.1.2-1.6.7-2.1c.5-.5,1.1-.8,1.8-.8s1.3.2,1.7.7c.4.5.6,1.1.6,2v.4h0ZM249.2,269.8c0-.5-.1-.9-.4-1.2-.2-.3-.6-.4-1-.4s-.8.1-1.1.4-.5.7-.5,1.2h3Z"/>
    <path d="M251,272.6l.4-.7c.2.2.5.3.7.4.2,0,.5.1.7.1.4,0,.7,0,.9-.2.2-.1.3-.4.3-.6s0-.4-.3-.6c-.2-.2-.5-.3-.8-.4-.7-.2-1.2-.4-1.4-.7-.2-.3-.4-.6-.4-1s.2-.8.5-1.1c.3-.3.8-.5,1.4-.5s.6,0,.8.1c.3,0,.5.2.8.4l-.4.7c-.2-.2-.5-.3-.7-.3s-.4,0-.6,0c-.4,0-.6,0-.8.2-.2.1-.3.3-.3.6s0,.4.3.6.5.2.9.4c.6.1,1,.4,1.3.6s.4.6.4,1.1-.2.9-.5,1.2-.8.4-1.5.4-.7,0-1-.1c-.3,0-.6-.2-.9-.4h0Z"/>
    <path d="M255.8,272.6l.4-.7c.2.2.5.3.7.4.2,0,.5.1.7.1.4,0,.7,0,.9-.2.2-.1.3-.4.3-.6s0-.4-.3-.6c-.2-.2-.5-.3-.8-.4-.7-.2-1.2-.4-1.4-.7-.2-.3-.4-.6-.4-1s.2-.8.5-1.1c.3-.3.8-.5,1.4-.5s.6,0,.8.1c.3,0,.5.2.8.4l-.4.7c-.2-.2-.5-.3-.7-.3s-.4,0-.6,0c-.4,0-.6,0-.8.2-.2.1-.3.3-.3.6s0,.4.3.6.5.2.9.4c.6.1,1,.4,1.3.6s.4.6.4,1.1-.2.9-.5,1.2-.8.4-1.5.4-.7,0-1-.1c-.3,0-.6-.2-.9-.4h0Z"/>
    <path d="M261.4,266.2c-.2,0-.3,0-.5-.2s-.2-.3-.2-.4,0-.3.2-.5c.1-.1.3-.2.5-.2s.3,0,.5.2.2.3.2.5,0,.3-.2.4-.3.2-.5.2ZM261.8,273h-.9v-5.5h.9v5.5Z"/>
    <path d="M268.1,270.5h-3.9c0,.6.2,1.1.5,1.4s.8.5,1.3.5.5,0,.8-.1c.2,0,.5-.2.7-.4l.4.6c-.3.2-.6.4-.9.4s-.7.1-1,.1c-.8,0-1.5-.2-2-.7s-.7-1.2-.7-2.1.2-1.6.7-2.1c.5-.5,1.1-.8,1.8-.8s1.3.2,1.7.7c.4.5.6,1.1.6,2v.4h0ZM267.2,269.8c0-.5-.1-.9-.4-1.2-.2-.3-.6-.4-1-.4s-.8.1-1.1.4-.5.7-.5,1.2h3Z"/>
    <path d="M272.1,265.6c-.1,0-.2,0-.3,0s-.2,0-.3,0c-.3,0-.5,0-.7.2-.1.2-.2.4-.2.7v1.1h1.3v.8h-1.3v4.8h-.9v-4.8h-.9v-.8h.9v-1.1c0-.5.2-.9.5-1.2s.8-.4,1.3-.4.3,0,.4,0c.1,0,.2,0,.3,0l-.2.7h0Z"/>
  </g>
  <g>
    <path d="M228.9,317.3h-3v2.7h2.8v.8h-2.8v3.4h-.9v-7.7h3.9v.8h0Z"/>
    <path d="M233,319.4c0,0-.1,0-.2,0,0,0-.1,0-.2,0-.4,0-.8.2-1.1.6-.3.4-.4.9-.4,1.4v2.8h-.9v-5.5h.9v1.1h0c.1-.4.3-.7.6-.9.3-.2.6-.3.9-.3s.2,0,.3,0,.2,0,.2,0l-.2.8Z"/>
    <path d="M237.9,324.2h-.9v-.9h0c-.2.3-.4.6-.7.7-.3.2-.6.2-1,.2s-.9-.1-1.2-.5c-.3-.3-.5-.7-.5-1.2s.2-.9.5-1.2c.3-.3.8-.5,1.4-.6l1.6-.2h0c0-.6-.1-.9-.3-1.1-.2-.2-.5-.3-.9-.3s-.6,0-.8.2c-.3.1-.5.3-.8.5l-.5-.5c.3-.3.6-.5,1-.7.3-.1.7-.2,1.2-.2.7,0,1.2.2,1.5.5.3.3.5.9.5,1.5v3.6h0ZM237,321.9v-.5l-1.3.2c-.4,0-.7.2-.9.3s-.3.4-.3.7,0,.6.3.8c.2.2.4.3.7.3.5,0,.9-.2,1.1-.5s.4-.7.4-1.2h0Z"/>
    <path d="M244.3,323.9c0,1-.2,1.7-.7,2.2s-1.2.7-2,.7-.7,0-1-.1c-.3,0-.7-.2-1-.4l.3-.7c.3.1.6.2.8.3s.6,0,.9,0c.6,0,1-.2,1.4-.5s.5-.8.5-1.5v-.8h0c-.2.4-.5.6-.8.8-.3.2-.7.3-1.1.3-.7,0-1.2-.2-1.7-.7-.4-.5-.6-1.1-.6-2s.2-1.6.7-2.2,1.1-.9,1.8-.9.7,0,1,.2.5.4.7.7h0v-.8h.9v5.2h0ZM243.4,321.7v-.8c0-.4-.2-.8-.4-1.1s-.7-.5-1.1-.5-1,.2-1.3.6c-.3.4-.5.9-.5,1.7s.1,1.2.4,1.5c.3.4.7.5,1.2.5s.9-.2,1.2-.5c.3-.4.5-.8.5-1.4h0Z"/>
    <path d="M246.6,317.3c-.2,0-.3,0-.5-.2s-.2-.3-.2-.4,0-.3.2-.5c.1-.1.3-.2.5-.2s.3,0,.5.2.2.3.2.5,0,.3-.2.4-.3.2-.5.2ZM247,324.2h-.9v-5.5h.9v5.5Z"/>
    <path d="M253.3,321.6h-3.9c0,.6.2,1.1.5,1.4s.8.5,1.3.5.5,0,.8-.1c.2,0,.5-.2.7-.4l.4.6c-.3.2-.6.4-.9.4s-.7.1-1,.1c-.8,0-1.5-.2-2-.7s-.7-1.2-.7-2.1.2-1.6.7-2.1c.5-.5,1.1-.8,1.8-.8s1.3.2,1.7.7c.4.5.6,1.1.6,2v.4h0ZM252.4,320.9c0-.5-.1-.9-.4-1.2-.2-.3-.6-.4-1-.4s-.8.1-1.1.4-.5.7-.5,1.2h3Z"/>
    <path d="M254.6,324.2v-8.2h.9v8.2h-.9Z"/>
  </g>
  <g>
    <path d="M225,375.3v-7.7h2.2c.7,0,1.2.2,1.6.5.4.3.6.8.6,1.3s-.1.8-.3,1.1-.6.5-1,.7h0c.5,0,.9.3,1.2.6s.5.8.5,1.3-.2,1.2-.7,1.6c-.5.4-1.1.6-1.8.6h-2.2ZM225.9,368.4v2.5h.9c.5,0,.9-.1,1.2-.4s.4-.6.4-1-.1-.7-.4-.9-.6-.3-1.1-.3h-1.1ZM225.9,371.7v2.8h1.2c.5,0,.9-.1,1.2-.4s.4-.6.4-1-.2-.8-.5-1-.8-.3-1.4-.3h-1,0Z"/>
    <path d="M235.7,372.7h-3.9c0,.6.2,1.1.5,1.4s.8.5,1.3.5.5,0,.8-.1c.2,0,.5-.2.7-.4l.4.6c-.3.2-.6.4-.9.4s-.7.1-1,.1c-.8,0-1.5-.2-1.9-.7s-.7-1.2-.7-2.1.2-1.6.7-2.1c.5-.5,1.1-.8,1.8-.8s1.3.2,1.7.7.6,1.1.6,2v.4h0ZM234.8,372c0-.5-.1-.9-.4-1.2-.2-.3-.6-.4-1-.4s-.8.1-1.1.4-.5.7-.5,1.2h3Z"/>
    <path d="M236.6,374.9l.4-.7c.2.2.5.3.7.4.2,0,.5.1.7.1.4,0,.7,0,.9-.2.2-.1.3-.4.3-.6s0-.4-.3-.6c-.2-.2-.5-.3-.8-.4-.7-.2-1.2-.4-1.4-.7-.2-.3-.4-.6-.4-1s.2-.8.5-1.1c.3-.3.8-.5,1.4-.5s.6,0,.8.1c.3,0,.5.2.8.4l-.4.7c-.2-.2-.5-.3-.7-.3s-.4,0-.6,0c-.4,0-.6,0-.8.2-.2.1-.3.3-.3.6s0,.4.3.6.5.2.9.4c.6.1,1,.4,1.3.6s.4.6.4,1.1-.2.9-.5,1.2-.8.4-1.5.4-.7,0-1-.1c-.3,0-.6-.2-.9-.4h0Z"/>
    <path d="M245.6,375c-.2.2-.5.3-.8.4-.2,0-.5.1-.8.1-.8,0-1.4-.2-1.9-.7s-.8-1.2-.8-2,.2-1.6.8-2.2,1.2-.8,2.1-.8.5,0,.8.1.5.2.8.3l-.4.6c-.2-.1-.4-.2-.6-.2s-.4,0-.7,0c-.6,0-1.1.2-1.4.6s-.5.9-.5,1.5.2,1.2.5,1.6.8.5,1.3.5.4,0,.5,0,.4-.1.6-.3l.4.6h0Z"/>
    <path d="M251.4,375.3h-.9v-3.2c0-.6-.1-1-.3-1.3-.2-.3-.5-.4-1-.4s-.8.2-1.1.5c-.3.3-.4.8-.4,1.3v3.1h-.9v-8.2h.9v3.6h0c.2-.4.5-.6.8-.8s.7-.3,1-.3c.6,0,1.1.2,1.4.6s.5.9.5,1.7v3.4h0Z"/>
    <path d="M257.5,372.7h-3.9c0,.6.2,1.1.5,1.4s.8.5,1.3.5.5,0,.8-.1c.2,0,.5-.2.7-.4l.4.6c-.3.2-.6.4-.9.4s-.7.1-1,.1c-.8,0-1.5-.2-2-.7s-.7-1.2-.7-2.1.2-1.6.7-2.1c.5-.5,1.1-.8,1.8-.8s1.3.2,1.7.7c.4.5.6,1.1.6,2v.4h0ZM256.6,372c0-.5-.1-.9-.4-1.2-.2-.3-.6-.4-1-.4s-.8.1-1.1.4-.5.7-.5,1.2h3Z"/>
    <path d="M259.4,368.4c-.2,0-.3,0-.5-.2s-.2-.3-.2-.4,0-.3.2-.5c.1-.1.3-.2.5-.2s.3,0,.5.2.2.3.2.5,0,.3-.2.4-.3.2-.5.2ZM259.8,375.3h-.9v-5.5h.9v5.5Z"/>
    <path d="M265.4,374.3c-.2.4-.5.6-.8.8-.3.2-.7.3-1.1.3-.7,0-1.2-.2-1.7-.7s-.6-1.2-.6-2,.2-1.6.7-2.2,1.1-.8,1.8-.8.7,0,1,.2.5.4.7.7h0v-3.4h.9v8.2h-.9v-.9h0,0ZM262.2,372.6c0,.6.2,1.1.4,1.5s.7.5,1.2.5.9-.2,1.2-.5c.3-.4.5-.8.5-1.4v-.8c0-.5-.2-.8-.4-1.1-.3-.3-.7-.5-1.1-.5s-1,.2-1.3.6c-.3.4-.5.9-.5,1.6h0Z"/>
    <path d="M272.5,372.7h-3.9c0,.6.2,1.1.5,1.4s.8.5,1.3.5.5,0,.8-.1c.2,0,.5-.2.7-.4l.4.6c-.3.2-.6.4-.9.4s-.6.1-1,.1c-.8,0-1.5-.2-2-.7s-.7-1.2-.7-2.1.2-1.6.7-2.1c.5-.5,1.1-.8,1.8-.8s1.3.2,1.7.7.6,1.1.6,2v.4h0ZM271.6,372c0-.5-.1-.9-.4-1.2-.2-.3-.6-.4-1-.4s-.8.1-1.1.4-.5.7-.5,1.2h3Z"/>
    <path d="M278.4,375.3h-.9v-3.1c0-.6-.1-1-.3-1.3s-.5-.4-1-.4-.8.2-1.1.5-.4.8-.4,1.3v3.1h-.9v-5.5h.9v.9h0c.2-.4.5-.6.8-.8.3-.2.6-.3,1-.3.6,0,1.1.2,1.4.6.3.4.5,1,.5,1.7v3.4h0Z"/>
  </g>
  <g>
    <path d="M232.9,426.4h-.9v-5.2c0-.2,0-.4,0-.7,0-.2,0-.5,0-.8h0c0,.2,0,.3-.1.5s0,.2-.1.3l-2.6,5.9h-.4l-2.6-5.9c0,0,0-.2-.1-.3,0-.1,0-.3-.1-.5h0c0,.1,0,.4,0,.6,0,.2,0,.5,0,.9v5.2h-.9v-7.7h1.2l2.4,5.4c0,.2.2.4.2.5,0,.2,0,.3.1.4h0c0-.2.2-.4.2-.6s.1-.3.2-.4l2.4-5.4h1.1v7.7h0Z"/>
    <path d="M235.2,419.6c-.2,0-.3,0-.4-.2-.1-.1-.2-.3-.2-.4s0-.3.2-.5c.1-.1.3-.2.4-.2s.3,0,.4.2c.1.1.2.3.2.5s0,.3-.2.4-.3.2-.4.2ZM235.6,426.4h-.9v-5.5h.9v5.5Z"/>
    <path d="M242,426.4h-.9v-3.1c0-.6-.1-1-.3-1.3s-.5-.4-1-.4-.8.2-1.1.5-.4.8-.4,1.3v3.1h-.9v-5.5h.9v.9h0c.2-.4.5-.6.8-.8s.7-.3,1-.3c.6,0,1.1.2,1.4.6.3.4.5,1,.5,1.7v3.4h0Z"/>
    <path d="M244.2,419.6c-.2,0-.3,0-.5-.2s-.2-.3-.2-.4,0-.3.2-.5c.1-.1.3-.2.5-.2s.3,0,.5.2.2.3.2.5,0,.3-.2.4-.3.2-.5.2ZM244.6,426.4h-.9v-5.5h.9v5.5Z"/>
    <path d="M254.3,426.4h-.9v-3.2c0-.6,0-1-.3-1.3-.2-.3-.5-.4-1-.4s-.7.2-1,.5c-.3.3-.4.8-.4,1.2v3.1h-.9v-3.3c0-.5,0-1-.3-1.2-.2-.3-.5-.4-.9-.4s-.7.2-1,.5-.4.8-.4,1.3v3.1h-.9v-5.5h.9v.9h0c.2-.3.4-.6.7-.8s.6-.2,1-.2.7.1,1,.3.5.5.6.8c.2-.4.5-.7.8-.9.3-.2.7-.3,1.1-.3.6,0,1.1.2,1.4.6s.5.9.5,1.7v3.4h0Z"/>
    <path d="M259.8,426.4h-.9v-.9h0c-.2.3-.4.6-.7.7-.3.2-.6.2-1,.2s-.9-.1-1.2-.5c-.3-.3-.5-.7-.5-1.2s.2-.9.5-1.2c.3-.3.8-.5,1.4-.6l1.6-.2h0c0-.6-.1-.9-.3-1.1-.2-.2-.5-.3-.9-.3s-.6,0-.8.2c-.3.1-.5.3-.8.5l-.5-.5c.3-.3.6-.5,1-.7.3-.1.7-.2,1.2-.2.7,0,1.2.2,1.5.5s.5.9.5,1.5v3.6h0ZM258.9,424.2v-.5l-1.3.2c-.4,0-.7.2-.9.3s-.3.4-.3.7,0,.6.3.8c.2.2.4.3.7.3.5,0,.9-.2,1.1-.5s.4-.7.4-1.2h0Z"/>
    <path d="M261.5,426.4v-8.2h.9v8.2h-.9Z"/>
    <path d="M264.6,419.6c-.2,0-.3,0-.5-.2s-.2-.3-.2-.4,0-.3.2-.5c.1-.1.3-.2.5-.2s.3,0,.5.2.2.3.2.5,0,.3-.2.4-.3.2-.5.2ZM265.1,426.4h-.9v-5.5h.9v5.5Z"/>
    <path d="M266.4,426l.4-.7c.2.2.5.3.7.4.2,0,.5.1.7.1.4,0,.7,0,.9-.2.2-.1.3-.4.3-.6s0-.4-.3-.6c-.2-.2-.5-.3-.8-.4-.7-.2-1.2-.4-1.4-.7-.2-.3-.4-.6-.4-1s.2-.8.5-1.1c.3-.3.8-.5,1.4-.5s.6,0,.8.1c.3,0,.5.2.8.4l-.4.7c-.2-.2-.5-.3-.7-.3s-.4,0-.6,0c-.4,0-.6,0-.8.2-.2.1-.3.3-.3.6s0,.4.3.6.5.2.9.4c.6.1,1,.4,1.3.6s.4.6.4,1.1-.2.9-.5,1.2-.8.4-1.5.4-.7,0-1-.1c-.3,0-.6-.2-.9-.4h0Z"/>
    <path d="M274.3,426.3c-.1,0-.3.1-.4.1-.1,0-.3,0-.5,0-.4,0-.8-.1-1-.4s-.4-.6-.4-1.1v-3.4h-1v-.8h1v-1.4l.9-.3v1.6h1.4v.8h-1.4v3.3c0,.3,0,.5.2.7.1.1.3.2.5.2s.2,0,.3,0,.2,0,.2,0l.2.7h0Z"/>
    <path d="M275.8,419.6c-.2,0-.3,0-.5-.2s-.2-.3-.2-.4,0-.3.2-.5c.1-.1.3-.2.5-.2s.3,0,.5.2.2.3.2.5,0,.3-.2.4-.3.2-.5.2ZM276.2,426.4h-.9v-5.5h.9v5.5Z"/>
    <path d="M277.5,426l.4-.7c.2.2.5.3.7.4.2,0,.5.1.7.1.4,0,.7,0,.9-.2.2-.1.3-.4.3-.6s0-.4-.3-.6c-.2-.2-.5-.3-.8-.4-.7-.2-1.2-.4-1.4-.7-.2-.3-.4-.6-.4-1s.2-.8.5-1.1c.3-.3.8-.5,1.4-.5s.6,0,.8.1c.3,0,.5.2.8.4l-.4.7c-.2-.2-.5-.3-.7-.3s-.4,0-.6,0c-.4,0-.6,0-.8.2-.2.1-.3.3-.3.6s.1.4.3.6.5.2.9.4c.6.1,1,.4,1.3.6s.4.6.4,1.1-.2.9-.5,1.2-.9.4-1.5.4-.7,0-1-.1c-.3,0-.6-.2-.9-.4h0Z"/>
    <path d="M286.7,426.1c-.2.2-.5.3-.8.4-.2,0-.5.1-.8.1-.8,0-1.4-.2-1.9-.7s-.8-1.2-.8-2,.2-1.6.8-2.2,1.2-.8,2.1-.8.5,0,.8.1.5.2.8.3l-.4.6c-.2-.1-.4-.2-.6-.2s-.4,0-.6,0c-.6,0-1.1.2-1.4.6s-.5.9-.5,1.5.2,1.2.5,1.6.8.5,1.3.5.4,0,.5,0,.4-.1.6-.3l.4.6h0Z"/>
    <path d="M292.5,426.4h-.9v-3.2c0-.6-.1-1-.3-1.3-.2-.3-.5-.4-1-.4s-.8.2-1.1.5c-.3.3-.4.8-.4,1.3v3.1h-.9v-8.2h.9v3.6h0c.2-.4.5-.6.8-.8.3-.2.6-.3,1-.3.6,0,1.1.2,1.4.6.3.4.5.9.5,1.7v3.4h0Z"/>
  </g>
  <g>
    <path class="st8" d="M197.6,26.6h7.7v2.2c0,.7-.2,1.2-.5,1.6-.3.4-.8.6-1.3.6s-.8-.1-1.1-.3-.6-.6-.7-1h0c0,.5-.3.9-.6,1.2-.3.3-.8.5-1.3.5s-1.2-.2-1.6-.7c-.4-.5-.6-1.1-.6-1.8v-2.2h0ZM204.5,27.5h-2.5v.9c0,.5.1.9.4,1.2.2.3.6.4,1,.4s.7-.1.8-.4c.2-.2.3-.6.3-1.1v-1h0ZM201.2,27.5h-2.8v1.2c0,.5.1.9.4,1.2s.6.4,1,.4.8-.2,1-.5c.2-.3.3-.8.3-1.4v-1h0Z"/>
    <path class="st8" d="M197.5,35.2c0-.8.3-1.5.8-2,.5-.5,1.2-.7,2.1-.7s1.6.2,2.2.8c.5.5.8,1.2.8,2.1,0,.8-.2,1.5-.8,1.9s-1.2.7-2.1.7-1.6-.2-2.1-.8c-.5-.5-.8-1.2-.8-2h0ZM198.2,35.3c0,.6.2,1,.6,1.3.4.3.9.5,1.6.5s1.2-.2,1.6-.5.6-.8.6-1.3-.2-1-.6-1.3c-.4-.3-.9-.5-1.6-.5s-1.2.2-1.5.5c-.4.3-.6.8-.6,1.3h0Z"/>
    <path class="st8" d="M200.1,43.7v-3.9c-.6,0-1.1.2-1.4.5s-.5.8-.5,1.3,0,.5.1.8.2.5.3.7l-.6.4c-.2-.3-.3-.6-.4-.9s-.1-.7-.1-1c0-.8.2-1.5.7-2s1.2-.7,2.1-.7,1.6.2,2.1.7.8,1.1.8,1.8-.2,1.3-.7,1.7-1.1.6-1.9.6h-.4,0ZM200.9,42.8c.5,0,.9-.1,1.2-.4.3-.2.4-.6.4-1s-.2-.8-.4-1.1-.7-.5-1.2-.5v3h0Z"/>
    <path class="st8" d="M197.6,49.6v-1.2l2.7-2.4h0s-2.7,0-2.7,0v-.9h8.2v.9h-5.2s2.5,2.3,2.5,2.3v1.2l-2.7-2.6-2.8,2.8h0Z"/>
  </g>
  <path class="st8" d="M201.3,81.2h-1.6v-12c-.2.2-.7.5-1.3.8-.6.3-1.2.5-1.6.6l-.5-1.4c.8-.2,1.5-.5,2.4-1,.8-.4,1.5-.9,2-1.3h.6v14.3h0Z"/>
  <g>
    <path class="st10" d="M173.3,23.2l-7.7-2.9v-1l7.7-2.8v1l-6.1,2.1c-.1,0-.2,0-.3,0-.1,0-.2,0-.4,0h0c.1,0,.2,0,.3,0s.2,0,.4.1l6.1,2.2v1h0Z"/>
    <path class="st10" d="M165.5,24.2h8.2v.9h-8.2v-.9Z"/>
    <path class="st10" d="M172.4,27.3c0-.2,0-.3.2-.5s.3-.2.4-.2.3,0,.4.2.2.3.2.5,0,.3-.2.5-.3.2-.4.2-.3,0-.4-.2-.2-.3-.2-.5ZM165.5,27.8v-.9h5.5v.9h-5.5Z"/>
    <path class="st10" d="M165.5,34.2v-.9h3.1c.6,0,1-.1,1.3-.3.3-.2.4-.5.4-1s-.2-.8-.5-1.1c-.3-.3-.8-.4-1.3-.4h-3.1v-.9h5.5v.9h-.9c.4.2.6.5.8.8s.3.7.3,1c0,.6-.2,1.1-.6,1.4s-.9.5-1.7.5h-3.4,0Z"/>
    <path class="st10" d="M166.5,39.6c-.4-.2-.6-.5-.8-.8s-.3-.7-.3-1.1c0-.7.2-1.2.7-1.7s1.2-.6,2-.6,1.6.2,2.2.7.8,1.1.8,1.8,0,.7-.2,1-.4.5-.7.7h0s3.4,0,3.4,0v.9h-8.2v-.9h.9s0,0,0,0ZM168.2,36.4c-.6,0-1.1.2-1.5.4s-.6.7-.6,1.2.2.9.5,1.2.8.5,1.4.5h.8c.4,0,.8-.2,1.1-.4.3-.3.5-.7.5-1.1s-.2-1-.6-1.3-.9-.5-1.6-.5h0Z"/>
    <path class="st10" d="M168.1,46.7v-3.9c-.6,0-1.1.2-1.4.5-.3.3-.5.8-.5,1.3s0,.5.1.8.2.5.4.7l-.6.4c-.2-.3-.4-.6-.4-.9s-.1-.7-.1-1c0-.8.2-1.5.7-1.9s1.2-.7,2.1-.7,1.6.2,2.1.7.8,1.1.8,1.8-.2,1.3-.7,1.7-1.1.6-1.9.6h-.4ZM168.8,45.8c.5,0,.9-.1,1.2-.4.3-.2.4-.6.4-1s-.1-.8-.4-1.1c-.3-.3-.7-.5-1.2-.5v3h0Z"/>
    <path class="st10" d="M170.3,50.8c0,0,0-.1,0-.2,0,0,0-.1,0-.2,0-.4-.2-.8-.6-1.1-.4-.3-.9-.4-1.4-.4h-2.8v-.9h5.5v.9h-1.1c.4.1.7.3.9.6s.3.6.3.9,0,.2,0,.3,0,.2,0,.2l-.8-.2h0Z"/>
  </g>
  <path class="st10" d="M165.3,81.2v-.7c0-.6,0-1.1.2-1.6s.4-.9.6-1.3c.3-.4.7-.8,1.2-1.2.5-.4,1.1-.9,1.8-1.4.5-.4.9-.7,1.3-1.1.3-.3.6-.7.8-1,.2-.3.3-.6.4-.9.1-.4.1-.7.1-1.1,0-.8-.2-1.4-.7-1.9-.4-.5-1.1-.7-1.8-.7s-1.2.1-1.8.3c-.6.2-1.1.6-1.5,1.1l-1-.9c.6-.6,1.3-1.1,2-1.4.7-.3,1.5-.5,2.4-.5,1.3,0,2.3.4,3,1.2.7.8,1,1.7,1,2.7s0,1-.2,1.5-.3.9-.6,1.3c-.3.4-.6.8-1,1.2s-.8.8-1.4,1.1c-.7.5-1.2.8-1.6,1.2-.4.3-.8.6-1,.9-.2.3-.4.6-.5.9-.1.3-.2.6-.2,1h7v1.4h-8.6,0Z"/>
  <g>
    <path class="st9" d="M133.5,9.7h7.7v2.1c0,1.4-.3,2.4-.9,3.1s-1.6,1-2.8,1-2.1-.4-2.9-1.1-1.1-1.8-1.1-3v-2h0ZM140.4,10.6h-6.1v1.2c0,1,.3,1.8.8,2.4s1.3.8,2.3.8,1.7-.3,2.2-.8.7-1.3.7-2.4v-1.2h0Z"/>
    <path class="st9" d="M140.3,17.8c0-.2,0-.3.2-.5s.3-.2.4-.2.3,0,.4.2.2.3.2.5,0,.3-.2.5-.3.2-.4.2-.3,0-.4-.2-.2-.3-.2-.5ZM133.5,18.2v-.9h5.5v.9h-5.5Z"/>
    <path class="st9" d="M133.9,19.5l.7.4c-.2.2-.3.5-.4.7s-.1.5-.1.7c0,.4,0,.7.2.9s.4.3.6.3.4,0,.6-.3c.2-.2.3-.5.4-.8.2-.7.4-1.2.7-1.4.3-.2.6-.4,1-.4s.8.2,1.1.5.4.8.4,1.4,0,.6-.1.8c0,.3-.2.5-.4.8l-.7-.4c.2-.2.3-.5.3-.7s0-.4,0-.6c0-.4,0-.6-.2-.8s-.3-.3-.6-.3-.4,0-.6.3c-.1.2-.2.5-.4.9-.1.6-.4,1-.6,1.3s-.6.4-1.1.4-.9-.2-1.2-.5-.4-.8-.4-1.5,0-.7.1-1,.2-.6.4-.9h0Z"/>
    <path class="st9" d="M133.8,28.7c-.2-.2-.3-.5-.4-.8,0-.2-.1-.5-.1-.8,0-.8.2-1.4.7-1.9s1.2-.8,2-.8,1.6.2,2.2.8.8,1.2.8,2.1,0,.5-.1.8c0,.3-.2.5-.3.8l-.6-.4c.1-.2.2-.4.2-.6s0-.4,0-.7c0-.6-.2-1.1-.6-1.4s-.9-.5-1.5-.5-1.2.2-1.6.5c-.4.3-.5.8-.5,1.3s0,.4,0,.5.1.4.3.6l-.6.4h0Z"/>
    <path class="st9" d="M133.4,32.2c0-.8.3-1.5.8-2,.5-.5,1.2-.7,2.1-.7s1.6.2,2.2.8.8,1.2.8,2.1c0,.8-.2,1.5-.8,1.9s-1.2.7-2.1.7-1.6-.2-2.1-.8c-.5-.5-.8-1.2-.8-2h0ZM134.1,32.2c0,.6.2,1,.6,1.3s.9.5,1.6.5,1.2-.2,1.6-.5.6-.8.6-1.3-.2-1-.6-1.3c-.4-.3-.9-.5-1.6-.5s-1.2.2-1.5.5c-.4.3-.6.8-.6,1.3h0Z"/>
    <path class="st9" d="M134.2,37.2h0s-.7,0-.7,0v-.9h8.2v.9h-3.6c.4.2.6.5.8.8s.3.7.3,1.1c0,.7-.2,1.3-.7,1.7s-1.1.6-2,.6-1.7-.2-2.2-.7c-.6-.5-.8-1.1-.8-1.8s0-.7.2-1,.4-.5.6-.7h0ZM136.5,37.2h-.8c-.5,0-.8.2-1.2.4s-.5.7-.5,1.1.2,1,.6,1.3c.4.3,1,.5,1.7.5s1.1-.1,1.4-.4c.4-.3.5-.7.5-1.2s-.2-.9-.5-1.2-.8-.5-1.3-.5h0Z"/>
    <path class="st9" d="M133.5,46.6v-.9h.9c-.3-.2-.6-.4-.7-.7s-.2-.6-.2-1,.1-.9.4-1.2.7-.5,1.2-.5.9.2,1.2.5.5.8.6,1.4l.2,1.6h.1c.5,0,.8-.1,1-.3.2-.2.3-.5.3-.9s0-.6-.2-.8c-.1-.3-.3-.5-.5-.8l.5-.5c.3.3.5.6.7,1,.1.3.2.7.2,1.2,0,.7-.2,1.2-.5,1.5-.3.3-.9.5-1.5.5h-3.6ZM135.7,45.7h.6l-.2-1.3c0-.4-.2-.7-.3-.9s-.4-.3-.7-.3-.6,0-.8.3c-.2.2-.3.4-.3.7,0,.5.2.9.5,1.1s.7.4,1.2.4h0Z"/>
    <path class="st9" d="M133.5,48.3h8.2v.9h-8.2v-.9Z"/>
  </g>
  <path class="st9" d="M133.1,80.2l.7-1.2c.5.3,1,.6,1.6.7.5.2,1.1.2,1.6.2,1,0,1.8-.2,2.3-.7.5-.5.8-1.1.8-1.9s-.3-1.7-1-2.1-1.6-.7-2.9-.7h-1.2v-1.4h1.1c1.1,0,2-.2,2.6-.7.6-.4.9-1.1.9-2s-.2-1.3-.7-1.7-1-.6-1.6-.6-1.1,0-1.6.2-1,.4-1.4.8l-.8-1.1c.6-.5,1.2-.8,1.8-1s1.3-.3,2.1-.3c1.2,0,2.1.3,2.8.9s1.1,1.5,1.1,2.5-.2,1.6-.7,2.2-1.2,1-2.1,1.3h0c.9.1,1.7.5,2.4,1.1.6.6.9,1.4.9,2.4s-.4,2.3-1.3,3c-.9.7-2,1.1-3.4,1.1s-1.5,0-2.1-.3-1.3-.5-1.9-.9h0Z"/>
  <g>
    <path class="st12" d="M102,17.5l.7.4c-.2.3-.4.6-.4,1s-.1.7-.1,1.1.1.9.3,1.2.5.5,1,.5.7-.1.9-.4.4-.7.7-1.3c.3-.7.6-1.3.9-1.6.3-.3.8-.5,1.3-.5s1.1.2,1.5.7.6,1,.6,1.8,0,.7-.1,1c0,.3-.2.7-.4,1l-.7-.3c.1-.3.2-.6.3-.9,0-.3,0-.6,0-.9,0-.5-.1-.8-.3-1.1-.2-.3-.5-.4-.9-.4s-.6.1-.8.4-.4.7-.6,1.2c-.3.8-.6,1.3-.9,1.7-.3.3-.8.5-1.4.5s-1.1-.2-1.6-.7c-.4-.5-.6-1.1-.6-1.9s0-.9.2-1.3.3-.8.6-1.2h0Z"/>
    <path class="st12" d="M101.8,27.8c-.2-.2-.3-.5-.4-.8,0-.2-.1-.5-.1-.8,0-.8.2-1.4.7-1.9s1.2-.8,2-.8,1.6.2,2.2.8.8,1.2.8,2.1,0,.5-.1.8c0,.3-.2.5-.3.8l-.6-.4c.1-.2.2-.4.2-.6s0-.4,0-.7c0-.6-.2-1.1-.6-1.4s-.9-.5-1.5-.5-1.2.2-1.6.5c-.4.3-.5.8-.5,1.3s0,.4,0,.5.1.4.3.6l-.6.4h0Z"/>
    <path class="st12" d="M101.5,33.6v-.9h3.2c.6,0,1-.1,1.3-.3s.4-.5.4-1-.2-.8-.5-1.1c-.3-.3-.8-.4-1.3-.4h-3.1v-.9h8.2v.9h-3.6c.4.2.6.5.8.8s.3.7.3,1c0,.6-.2,1.1-.6,1.4s-.9.5-1.7.5h-3.4,0Z"/>
    <path class="st12" d="M104,39.7v-3.9c-.6,0-1.1.2-1.4.5-.3.3-.5.8-.5,1.3s0,.5.1.8.2.5.4.7l-.6.4c-.2-.3-.4-.6-.4-.9s-.1-.7-.1-1c0-.8.2-1.5.7-2s1.2-.7,2.1-.7,1.6.2,2.1.7.8,1.1.8,1.8-.2,1.3-.7,1.7-1.1.6-1.9.6h-.4ZM104.7,38.8c.5,0,.9-.1,1.2-.4.3-.2.4-.6.4-1s-.1-.8-.4-1.1c-.3-.3-.7-.5-1.2-.5v3h0Z"/>
    <path class="st12" d="M101.5,41.2h8.2v.9h-8.2v-.9Z"/>
    <path class="st12" d="M102.3,44.8h0s-3.3,0-3.3,0v-.9h8v.9h-1c.4.2.6.5.8.8s.3.7.3,1.1c0,.7-.2,1.3-.7,1.7s-1.1.6-2,.6-1.7-.2-2.2-.7-.8-1.1-.8-1.8,0-.7.2-.9.4-.5.7-.7h0ZM104.5,44.7h-.8c-.5,0-.8.2-1.2.4s-.5.7-.5,1.1.2.9.6,1.3c.4.3,1,.4,1.7.4s1.1-.1,1.4-.4c.4-.3.5-.7.5-1.2s-.2-.9-.5-1.2-.8-.5-1.3-.5h0Z"/>
  </g>
  <path class="st12" d="M108.8,67v9.4h1.5v1.5h-1.5v3.4h-1.6v-3.4h-6.6v-1.4c.6-.7,1.2-1.5,1.9-2.3.6-.8,1.2-1.6,1.8-2.4.6-.8,1.1-1.6,1.6-2.5.5-.8.9-1.6,1.2-2.4h1.7,0ZM102.4,76.4h4.8v-7c-.5.9-1,1.6-1.4,2.3-.4.7-.9,1.3-1.2,1.9-.4.6-.8,1.1-1.1,1.5s-.7.9-1,1.3h0Z"/>
  <g>
    <path class="st7" d="M72.3,13.2h-2.8v-.9h7.7v2.1c0,.8-.2,1.5-.6,1.9-.4.5-1,.7-1.7.7s-1.4-.2-1.8-.8-.7-1.2-.7-2v-1h0ZM76.3,13.2h-3.2v1c0,.6.1,1.1.4,1.4s.7.5,1.2.5.9-.2,1.2-.5.4-.8.4-1.4v-1.1Z"/>
    <path class="st7" d="M69.4,22.3v-.9h.9c-.3-.2-.6-.4-.7-.7-.2-.3-.2-.6-.2-1s.1-.9.4-1.2.7-.5,1.2-.5.9.2,1.2.5.5.8.6,1.4l.2,1.6h.1c.5,0,.8-.1,1-.3.2-.2.3-.5.3-.9s0-.6-.2-.8-.3-.5-.5-.8l.5-.5c.3.3.5.6.7,1,.1.3.2.7.2,1.2,0,.7-.2,1.2-.5,1.5s-.9.5-1.5.5h-3.6ZM71.7,21.4h.6l-.2-1.3c0-.4-.2-.7-.3-.9s-.4-.3-.7-.3-.6,0-.8.3c-.2.2-.3.4-.3.7,0,.5.2.9.5,1.1s.7.4,1.2.4h0Z"/>
    <path class="st7" d="M69.8,27.9c-.2-.2-.3-.5-.4-.8,0-.2-.1-.5-.1-.8,0-.8.2-1.4.7-1.9s1.2-.8,2-.8,1.6.2,2.2.8.8,1.2.8,2.1,0,.5-.1.8c0,.3-.2.5-.3.8l-.6-.4c.1-.2.2-.4.2-.6s0-.4,0-.7c0-.6-.2-1.1-.6-1.4s-.9-.5-1.5-.5-1.2.2-1.6.5c-.4.3-.5.8-.5,1.3s0,.4,0,.5.1.4.3.6l-.6.4h0Z"/>
    <path class="st7" d="M69.4,36.9v-.9h3.2c.6,0,1.1,0,1.3-.3s.4-.5.4-1-.2-.7-.5-1c-.3-.3-.8-.4-1.2-.4h-3.1v-.9h3.3c.5,0,.9,0,1.2-.3.3-.2.4-.5.4-.9s-.2-.7-.5-1c-.3-.2-.8-.4-1.3-.4h-3.1v-.9h5.5v.9h-.9c.3.2.6.5.8.7.2.3.2.6.2,1s-.1.7-.3,1c-.2.3-.5.5-.8.6.4.2.7.5.9.8s.3.7.3,1.1c0,.6-.2,1.1-.6,1.4s-.9.5-1.7.5h-3.4Z"/>
    <path class="st7" d="M69.4,42.5v-.9h.9c-.3-.2-.6-.4-.7-.7s-.2-.6-.2-1,.1-.9.4-1.2.7-.5,1.2-.5.9.2,1.2.5.5.8.6,1.4l.2,1.6h.1c.5,0,.8-.1,1-.3.2-.2.3-.5.3-.9s0-.6-.2-.8-.3-.5-.5-.8l.5-.5c.3.3.5.6.7,1,.1.3.2.7.2,1.2,0,.7-.2,1.2-.5,1.5s-.9.5-1.5.5c0,0-3.6,0-3.6,0ZM71.7,41.6h.6l-.2-1.3c0-.4-.2-.7-.3-.9s-.4-.3-.7-.3-.6,0-.8.3c-.2.2-.3.4-.3.7,0,.5.2.9.5,1.1.3.3.7.4,1.2.4h0Z"/>
    <path class="st7" d="M69.4,48.8v-.9h3.1c.6,0,1-.1,1.3-.3.3-.2.4-.5.4-1s-.2-.8-.5-1.1-.8-.4-1.3-.4h-3.1v-.9h5.5v.9h-.9c.4.2.6.5.8.8s.3.7.3,1c0,.6-.2,1.1-.6,1.4s-.9.5-1.7.5h-3.4,0Z"/>
  </g>
  <path class="st7" d="M69,80l.8-1.1c.5.4,1,.7,1.5.8.5.2,1.1.3,1.7.3.9,0,1.7-.3,2.3-.9.6-.6.9-1.3.9-2.2s-.3-1.6-.9-2.2c-.6-.5-1.5-.8-2.7-.8s-.8,0-1.2,0-.8,0-1.1,0l.5-7h6.5v1.4h-5.1l-.3,4.1c.2,0,.4,0,.7,0s.4,0,.6,0c1.5,0,2.6.4,3.5,1.1s1.3,1.8,1.3,3.1-.4,2.5-1.4,3.3-2,1.2-3.4,1.2-1.5-.1-2.1-.3c-.6-.2-1.3-.6-1.9-1.1h0Z"/>
  <g>
    <path d="M20.8,119.1l.4-.7c.3.2.6.4,1,.4.3,0,.7.1,1.1.1s.9-.1,1.2-.3c.3-.2.5-.5.5-1s-.1-.7-.4-.9c-.3-.2-.7-.4-1.3-.7-.7-.3-1.3-.6-1.6-.9-.4-.3-.5-.8-.5-1.3s.2-1.1.7-1.5c.5-.4,1-.6,1.8-.6s.7,0,1,.1.7.2,1,.4l-.3.7c-.3-.1-.6-.2-.9-.3s-.6,0-.9,0c-.5,0-.8.1-1.1.3-.3.2-.4.5-.4.9s.1.6.4.8.7.4,1.2.6c.8.3,1.3.6,1.7.9.3.4.5.8.5,1.4s-.2,1.1-.7,1.6c-.5.4-1.1.6-1.9.6s-.9,0-1.3-.2c-.4-.1-.8-.3-1.2-.6h0Z"/>
    <path d="M28.1,118.9h0v3.3h-.9v-8.1h.9v1h0c.2-.4.5-.6.8-.8s.7-.3,1.1-.3c.7,0,1.3.2,1.7.7s.6,1.2.6,2-.2,1.7-.7,2.2-1.1.8-1.8.8-.7,0-1-.2-.5-.4-.7-.7h0ZM28.1,116.7v.8c0,.5.1.8.4,1.2.3.3.7.5,1.1.5s1-.2,1.3-.6.5-1,.5-1.7-.1-1.1-.4-1.4c-.3-.4-.7-.5-1.1-.5s-.9.2-1.2.5-.5.8-.5,1.4h0Z"/>
    <path d="M38.1,117.1h-3.9c0,.6.2,1.1.5,1.4s.8.5,1.3.5.5,0,.8-.1.5-.2.7-.4l.4.6c-.3.2-.6.4-.9.4s-.6.1-1,.1c-.8,0-1.5-.2-2-.7-.5-.5-.7-1.2-.7-2.1s.2-1.6.7-2.1c.5-.5,1.1-.8,1.8-.8s1.3.2,1.7.7c.4.5.6,1.1.6,1.9v.4h0ZM37.2,116.4c0-.5-.1-.9-.4-1.2-.2-.3-.6-.4-1-.4s-.8.1-1.1.4c-.3.3-.5.7-.5,1.2h3Z"/>
    <path d="M43.9,117.1h-3.9c0,.6.2,1.1.5,1.4s.8.5,1.3.5.5,0,.8-.1.5-.2.7-.4l.4.6c-.3.2-.6.4-.9.4s-.6.1-1,.1c-.8,0-1.5-.2-2-.7-.5-.5-.7-1.2-.7-2.1s.2-1.6.7-2.1c.5-.5,1.1-.8,1.8-.8s1.3.2,1.7.7c.4.5.6,1.1.6,1.9v.4h0ZM43,116.4c0-.5-.1-.9-.4-1.2-.2-.3-.6-.4-1-.4s-.8.1-1.1.4c-.3.3-.5.7-.5,1.2h3Z"/>
    <path d="M45.3,119.7v-8.2h.9v8.2h-.9Z"/>
    <path d="M47.4,119.3l.4-.7c.2.2.5.3.7.4s.5.1.7.1c.4,0,.7,0,.9-.2s.3-.4.3-.6,0-.4-.3-.6c-.2-.2-.4-.3-.8-.4-.7-.2-1.2-.4-1.4-.7-.2-.3-.4-.6-.4-1s.2-.8.5-1.1.8-.5,1.4-.5.6,0,.8.1c.3,0,.5.2.8.4l-.4.7c-.2-.2-.5-.3-.7-.3s-.4,0-.6,0c-.4,0-.6,0-.8.2-.2.1-.3.3-.3.6s.1.4.3.6c.2.1.5.2.9.4.6.1,1,.4,1.3.6s.4.6.4,1.1-.2.9-.5,1.2-.9.4-1.5.4-.7,0-1-.1-.6-.2-.9-.4h0Z"/>
  </g>
  <g>
    <path d="M26.5,163.9h-2.2v6.9h-.9v-6.9h-2.2v-.8h5.4v.8Z"/>
    <path d="M31.5,170.8h-.9v-.9h0c-.2.3-.4.6-.7.7-.3.2-.6.2-1,.2s-.9-.1-1.2-.4-.5-.7-.5-1.2.2-.9.5-1.2.8-.5,1.4-.6l1.6-.2h0c0-.6-.1-.9-.3-1.1s-.5-.3-.9-.3-.6,0-.8.2-.5.3-.8.5l-.5-.5c.3-.3.6-.5,1-.7.4-.1.7-.2,1.2-.2.7,0,1.2.2,1.5.5s.5.9.5,1.5v3.6h0ZM30.7,168.6v-.6l-1.3.2c-.4,0-.7.2-.9.3s-.3.4-.3.7.1.6.3.8.4.3.7.3c.5,0,.9-.2,1.1-.5s.4-.7.4-1.2h0Z"/>
    <path d="M37.1,170.5c-.2.2-.5.3-.8.4-.2,0-.5.1-.8.1-.8,0-1.4-.2-1.9-.7s-.8-1.2-.8-2.1.2-1.6.8-2.2c.5-.6,1.2-.8,2.1-.8s.5,0,.8.1.5.2.8.3l-.4.6c-.2-.1-.4-.2-.6-.2-.2,0-.4,0-.6,0-.6,0-1.1.2-1.4.6s-.5.9-.5,1.6.2,1.2.5,1.6.8.5,1.3.5.4,0,.5,0,.4-.1.6-.3l.4.6h0Z"/>
    <path d="M40.9,170.7c-.1,0-.3.1-.4.1-.1,0-.3,0-.5,0-.4,0-.8-.1-1-.4s-.4-.6-.4-1.1v-3.4h-1v-.8h1v-1.4l.9-.3v1.6h1.4v.8h-1.4v3.3c0,.3,0,.5.2.7.1.1.3.2.5.2s.2,0,.3,0c.1,0,.2,0,.2,0l.2.7h0Z"/>
    <path d="M42.5,164c-.2,0-.3,0-.5-.2-.1-.1-.2-.3-.2-.4s0-.3.2-.4.3-.2.5-.2.3,0,.5.2c.1.1.2.3.2.4s0,.3-.2.4-.3.2-.5.2ZM42.9,170.8h-.9v-5.5h.9v5.5Z"/>
    <path d="M49.2,168.2h-3.9c0,.6.2,1.1.5,1.4s.8.5,1.3.5.5,0,.8-.1.5-.2.7-.4l.4.6c-.3.2-.6.4-.9.4s-.6.1-1,.1c-.8,0-1.5-.2-1.9-.7-.5-.5-.7-1.2-.7-2.1s.2-1.6.7-2.1c.5-.5,1.1-.8,1.8-.8s1.3.2,1.7.7.6,1.1.6,1.9v.4h0ZM48.3,167.5c0-.5-.1-.9-.4-1.2-.2-.3-.6-.4-1-.4s-.8.1-1.1.4c-.3.3-.5.7-.5,1.2h3Z"/>
    <path d="M50.5,170.8v-8.2h.9v8.2h-.9Z"/>
  </g>
  <g>
    <path d="M34.2,221.9h-1.3l-3-3.5c0,0-.1-.1-.1-.2,0,0,0,0,0-.1h0v3.8h-.9v-7.7h.9v3.6h0s0,0,0-.1c0,0,0,0,.1-.1l2.9-3.4h1.1l-3.3,3.7,3.5,4h0Z"/>
    <path d="M39,221.9h-.9v-.9h0c-.2.3-.4.6-.7.7-.3.2-.6.2-1,.2s-.9-.1-1.2-.4-.5-.7-.5-1.2.2-.9.5-1.2.8-.5,1.4-.6l1.6-.2h0c0-.6-.1-.9-.3-1.1s-.5-.3-.9-.3-.6,0-.8.2-.5.3-.8.5l-.5-.5c.3-.3.6-.5,1-.7.4-.1.7-.2,1.2-.2.7,0,1.2.2,1.5.5s.5.9.5,1.5v3.6h0ZM38.1,219.7v-.6l-1.3.2c-.4,0-.7.2-.9.3s-.3.4-.3.7.1.6.3.8.4.3.7.3c.5,0,.9-.2,1.1-.5s.4-.7.4-1.2h0Z"/>
    <path d="M40.7,221.9v-8.2h.9v8.2h-.9Z"/>
    <path d="M51.2,221.9h-.9v-3.2c0-.6,0-1.1-.3-1.3-.2-.3-.5-.4-.9-.4s-.7.2-1,.5c-.3.4-.4.8-.4,1.2v3.1h-.9v-3.3c0-.5-.1-.9-.3-1.2-.2-.3-.5-.4-.9-.4s-.7.2-1,.5-.4.8-.4,1.3v3.1h-.9v-5.5h.9v.9h0c.2-.3.4-.6.7-.8.3-.2.6-.2,1-.2s.7.1,1,.3c.3.2.5.5.6.8.2-.4.5-.7.8-.9.3-.2.7-.3,1.1-.3.6,0,1.1.2,1.4.6s.4.9.4,1.7v3.4h0Z"/>
  </g>
  <g>
    <path d="M19.7,272.5l.4-.7c.3.2.6.4,1,.5.3,0,.7.1,1.1.1s.9-.1,1.2-.3c.3-.2.5-.5.5-1s-.1-.7-.4-.9-.7-.5-1.3-.7c-.7-.3-1.3-.6-1.6-.9-.4-.3-.5-.8-.5-1.3s.2-1.1.7-1.5c.5-.4,1-.6,1.8-.6s.7,0,1,.1.7.2,1,.4l-.3.7c-.3-.1-.6-.2-.9-.3s-.6,0-.9,0c-.5,0-.8.1-1.1.3-.3.2-.4.5-.4.9s.1.6.4.8.7.4,1.2.6c.8.3,1.3.6,1.7.9.3.3.5.8.5,1.4s-.2,1.1-.7,1.6c-.5.4-1.1.6-1.9.6s-.9,0-1.3-.2c-.4-.1-.8-.3-1.2-.5h0Z"/>
    <path d="M30.6,273h-.9v-.9h0c-.2.3-.4.6-.7.8s-.6.2-1,.2c-.7,0-1.1-.2-1.5-.6s-.5-1-.5-1.8v-3.3h.9v3.2c0,.6.1,1,.3,1.3s.6.4,1,.4.8-.2,1.1-.5.4-.7.4-1.2v-3.2h.9v5.5Z"/>
    <path d="M33.3,272.3h0v.7h-.9v-8.2h.9v3.6h0c.2-.4.5-.6.8-.8.3-.2.7-.3,1.1-.3.7,0,1.3.2,1.7.7s.6,1.2.6,2-.2,1.7-.7,2.2c-.5.5-1.1.8-1.8.8s-.7,0-1-.2c-.3-.1-.5-.4-.7-.6h0ZM33.2,270v.8c0,.5.1.8.4,1.2.3.3.7.5,1.1.5s1-.2,1.3-.6c.3-.4.5-1,.5-1.7s-.1-1.1-.4-1.5c-.3-.4-.7-.5-1.1-.5s-.9.2-1.2.5-.5.8-.5,1.3h0Z"/>
    <path d="M41.5,273c-.1,0-.3.1-.4.1-.1,0-.3,0-.5,0-.4,0-.8-.1-1-.4s-.4-.6-.4-1.1v-3.4h-1v-.8h1v-1.4l.9-.3v1.6h1.4v.8h-1.4v3.3c0,.3,0,.5.2.7.1.1.3.2.5.2s.2,0,.3,0,.2,0,.2,0l.2.7h0Z"/>
    <path d="M43,266.2c-.2,0-.3,0-.5-.2-.1-.1-.2-.3-.2-.4s0-.3.2-.5c.1-.1.3-.2.5-.2s.3,0,.5.2c.1.1.2.3.2.5s0,.3-.2.4-.3.2-.5.2ZM43.4,273h-.9v-5.5h.9v5.5Z"/>
    <path d="M49.7,270.5h-3.9c0,.6.2,1.1.5,1.4s.8.5,1.3.5.5,0,.8-.1c.2,0,.5-.2.7-.4l.4.6c-.3.2-.6.4-.9.4s-.6.1-1,.1c-.8,0-1.5-.2-1.9-.7s-.7-1.2-.7-2.1.2-1.6.7-2.1c.5-.5,1.1-.8,1.8-.8s1.3.2,1.7.7.6,1.1.6,2v.4h0ZM48.8,269.8c0-.5-.1-.9-.4-1.2-.2-.3-.6-.4-1-.4s-.8.1-1.1.4c-.3.3-.5.7-.5,1.2h3Z"/>
    <path d="M51.1,273v-8.2h.9v8.2h-.9Z"/>
  </g>
  <g>
    <path d="M24.2,323.6l.4-.7c.3.2.6.4,1,.5.3,0,.7.1,1.1.1s.9-.1,1.2-.3c.3-.2.5-.5.5-1s-.1-.7-.4-.9-.7-.5-1.3-.7c-.7-.3-1.3-.6-1.6-.9-.4-.3-.5-.8-.5-1.3s.2-1.1.7-1.5c.5-.4,1-.6,1.8-.6s.7,0,1,.1.7.2,1,.4l-.3.7c-.3-.1-.6-.2-.9-.3s-.6,0-.9,0c-.5,0-.8.1-1.1.3-.3.2-.4.5-.4.9s.1.6.4.8.7.4,1.2.6c.8.3,1.3.6,1.7.9.3.3.5.8.5,1.4s-.2,1.1-.7,1.6c-.5.4-1.1.6-1.9.6s-.9,0-1.3-.2c-.4-.1-.8-.3-1.2-.5h0Z"/>
    <path d="M33.2,324.1c-.1,0-.3.1-.4.1-.1,0-.3,0-.5,0-.4,0-.8-.1-1-.4s-.4-.6-.4-1.1v-3.4h-1v-.8h1v-1.4l.9-.3v1.6h1.4v.8h-1.4v3.3c0,.3,0,.5.2.7.1.1.3.2.5.2s.2,0,.3,0,.2,0,.2,0l.2.7h0Z"/>
    <path d="M38.8,321.6h-3.9c0,.6.2,1.1.5,1.4s.8.5,1.3.5.5,0,.8-.1c.2,0,.5-.2.7-.4l.4.6c-.3.2-.6.4-.9.4s-.6.1-1,.1c-.8,0-1.5-.2-2-.7s-.7-1.2-.7-2.1.2-1.6.7-2.1c.5-.5,1.1-.8,1.8-.8s1.3.2,1.7.7c.4.5.6,1.1.6,2v.4h0ZM37.9,320.9c0-.5-.1-.9-.4-1.2-.2-.3-.6-.4-1-.4s-.8.1-1.1.4-.5.7-.5,1.2h3Z"/>
    <path d="M44.5,318.6l-2.2,5.5h-.9l-2.1-5.5h1l1.4,4c0,.1,0,.3.1.4,0,.1,0,.2,0,.4h0c0-.1,0-.3,0-.4,0-.1,0-.2.1-.4l1.5-4h1Z"/>
    <path d="M45.8,317.3c-.2,0-.3,0-.5-.2-.1-.1-.2-.3-.2-.4s0-.3.2-.5c.1-.1.3-.2.5-.2s.3,0,.5.2c.1.1.2.3.2.5s0,.3-.2.4-.3.2-.5.2ZM46.3,324.2h-.9v-5.5h.9v5.5Z"/>
    <path d="M52.8,323.9c0,1-.2,1.7-.7,2.2s-1.2.7-2,.7-.7,0-1.1-.1c-.3,0-.7-.2-1-.4l.3-.7c.3.1.6.2.8.3s.6,0,.9,0c.6,0,1.1-.2,1.4-.5s.5-.8.5-1.5v-.8h0c-.2.4-.5.6-.8.8-.3.2-.7.3-1.1.3-.7,0-1.2-.2-1.6-.7-.4-.5-.6-1.1-.6-2s.2-1.6.7-2.2,1.1-.9,1.8-.9.7,0,1,.2.5.4.7.7h0v-.8h.9v5.2h0ZM51.9,321.7v-.8c0-.4-.1-.8-.4-1.1s-.7-.5-1.1-.5-1,.2-1.3.6-.5.9-.5,1.7.1,1.2.4,1.5c.3.4.7.5,1.2.5s.9-.2,1.2-.5c.3-.4.5-.8.5-1.4h0Z"/>
  </g>
  <g>
    <path d="M7.7,375.3v-7.7h2.1c1.4,0,2.4.3,3.1.9s1,1.6,1,2.8-.4,2.1-1.1,2.9c-.8.7-1.8,1.1-3,1.1h-2ZM8.6,368.4v6.1h1.1c1,0,1.8-.3,2.4-.8s.8-1.3.8-2.3-.3-1.7-.8-2.2-1.3-.7-2.4-.7h-1.2,0Z"/>
    <path d="M17.6,375.4c-.8,0-1.5-.3-2-.8-.5-.5-.7-1.2-.7-2s.2-1.6.8-2.2c.5-.5,1.2-.8,2.1-.8.8,0,1.5.2,1.9.8.5.5.7,1.2.7,2.1s-.2,1.6-.8,2.1-1.2.8-2,.8h0ZM17.7,374.7c.6,0,1-.2,1.3-.6s.5-.9.5-1.6-.1-1.2-.5-1.6-.8-.6-1.3-.6-1,.2-1.4.6-.5.9-.5,1.6.2,1.2.5,1.5c.3.4.8.6,1.3.6Z"/>
    <path d="M29.5,375.3h-.9v-3.2c0-.6,0-1-.3-1.3-.2-.3-.5-.4-1-.4s-.7.2-1,.5c-.3.3-.4.8-.4,1.2v3.1h-.9v-3.3c0-.5-.1-1-.3-1.2s-.5-.4-.9-.4-.7.2-1,.5-.4.8-.4,1.3v3.1h-.9v-5.5h.9v.9h0c.2-.3.4-.6.7-.8s.6-.2,1-.2.7.1,1,.3.5.5.6.8c.2-.4.5-.7.8-.9.3-.2.7-.3,1.1-.3.6,0,1.1.2,1.4.6s.5.9.5,1.7v3.4h0Z"/>
    <path d="M31.7,368.4c-.2,0-.3,0-.5-.2-.1-.1-.2-.3-.2-.4s0-.3.2-.5c.1-.1.3-.2.5-.2s.3,0,.5.2c.1.1.2.3.2.5s0,.3-.2.4-.3.2-.5.2ZM32.2,375.3h-.9v-5.5h.9v5.5Z"/>
    <path d="M38.6,375.3h-.9v-3.1c0-.6-.1-1-.3-1.3s-.5-.4-1-.4-.8.2-1.1.5-.4.8-.4,1.3v3.1h-.9v-5.5h.9v.9h0c.2-.4.5-.6.8-.8.3-.2.6-.3,1-.3.6,0,1.1.2,1.4.6.3.4.5,1,.5,1.7v3.4h0Z"/>
    <path d="M44.2,375.3h-.9v-.9h0c-.2.3-.4.6-.7.7-.3.2-.6.2-1,.2s-.9-.1-1.2-.5c-.3-.3-.5-.7-.5-1.2s.2-.9.5-1.2c.3-.3.8-.5,1.4-.6l1.6-.2h0c0-.6-.1-.9-.3-1.1-.2-.2-.5-.3-.9-.3s-.6,0-.8.2c-.3.1-.5.3-.8.5l-.5-.5c.3-.3.6-.5,1-.7.4-.1.7-.2,1.2-.2.7,0,1.2.2,1.5.5s.5.9.5,1.5v3.6h0ZM43.3,373v-.5l-1.3.2c-.4,0-.7.2-.9.3s-.3.4-.3.7.1.6.3.8c.2.2.4.3.7.3.5,0,.9-.2,1.1-.5s.4-.7.4-1.2h0Z"/>
    <path d="M50.5,375.3h-.9v-3.1c0-.6-.1-1-.3-1.3s-.5-.4-1-.4-.8.2-1.1.5c-.3.3-.4.8-.4,1.3v3.1h-.9v-5.5h.9v.9h0c.2-.4.5-.6.8-.8.3-.2.6-.3,1-.3.6,0,1.1.2,1.4.6.3.4.5,1,.5,1.7v3.4h0Z"/>
    <path d="M54.8,375.2c-.1,0-.3.1-.4.1-.1,0-.3,0-.5,0-.4,0-.8-.1-1-.4s-.4-.6-.4-1.1v-3.4h-.9v-.8h.9v-1.4l.9-.3v1.6h1.4v.8h-1.4v3.3c0,.3,0,.5.2.7.1.1.3.2.5.2s.2,0,.3,0c.1,0,.2,0,.2,0l.2.7h0Z"/>
  </g>
  <g>
    <path d="M21.2,425.8l.4-.7c.3.2.6.4,1,.5.3,0,.7.1,1.1.1s.9-.1,1.2-.3c.3-.2.5-.5.5-1s-.1-.7-.4-.9-.7-.5-1.3-.7c-.7-.3-1.3-.6-1.6-.9-.4-.3-.5-.8-.5-1.3s.2-1.1.7-1.5c.5-.4,1-.6,1.8-.6s.7,0,1,.1.7.2,1,.4l-.3.7c-.3-.1-.6-.2-.9-.3s-.6,0-.9,0c-.5,0-.8.1-1.1.3-.3.2-.4.5-.4.9s.1.6.4.8.7.4,1.2.6c.8.3,1.3.6,1.7.9.3.3.5.8.5,1.4s-.2,1.1-.7,1.6c-.5.4-1.1.6-1.9.6s-.9,0-1.3-.2c-.4-.1-.8-.3-1.2-.5h0Z"/>
    <path d="M30.2,426.3c-.1,0-.3.1-.4.1-.1,0-.3,0-.5,0-.4,0-.8-.1-1-.4s-.4-.6-.4-1.1v-3.4h-1v-.8h1v-1.4l.9-.3v1.6h1.4v.8h-1.4v3.3c0,.3,0,.5.2.7.1.1.3.2.5.2s.2,0,.3,0,.2,0,.2,0l.2.7h0Z"/>
    <path d="M31.8,419.6c-.2,0-.3,0-.5-.2-.1-.1-.2-.3-.2-.4s0-.3.2-.5c.1-.1.3-.2.5-.2s.3,0,.5.2c.1.1.2.3.2.5s0,.3-.2.4-.3.2-.5.2ZM32.2,426.4h-.9v-5.5h.9v5.5Z"/>
    <path d="M34.5,419.6c-.2,0-.3,0-.5-.2-.1-.1-.2-.3-.2-.4s0-.3.2-.5c.1-.1.3-.2.5-.2s.3,0,.5.2c.1.1.2.3.2.5s0,.3-.2.4-.3.2-.5.2ZM34.9,426.6c0,.9-.2,1.5-.5,1.9s-.8.6-1.4.6-.3,0-.4,0c-.1,0-.2,0-.4,0l.2-.8c.1,0,.2,0,.3,0,0,0,.2,0,.3,0,.4,0,.6-.1.8-.4s.2-.7.2-1.2v-5.7h.9v5.7h0Z"/>
    <path d="M36.7,426.4v-8.2h.9v8.2h-.9Z"/>
    <path d="M43.7,420.9l-2.2,5.5h-.9l-2.1-5.5h1l1.4,4c0,.1,0,.3.1.4,0,.1,0,.2,0,.4h0c0-.1,0-.3,0-.4,0-.1,0-.2.1-.4l1.5-4h1Z"/>
    <path d="M47,426.5c-.8,0-1.5-.3-2-.8-.5-.5-.7-1.2-.7-2s.2-1.6.8-2.2c.5-.5,1.2-.8,2.1-.8.8,0,1.5.2,1.9.8.5.5.7,1.2.7,2.1s-.2,1.6-.8,2.1-1.2.8-2,.8h0ZM47,425.8c.6,0,1-.2,1.3-.6.3-.4.5-.9.5-1.6s-.1-1.2-.5-1.6-.8-.6-1.3-.6-1,.2-1.4.6-.5.9-.5,1.6.2,1.2.5,1.5c.3.4.8.6,1.3.6Z"/>
    <path d="M51.1,426.4v-8.2h.9v8.2h-.9Z"/>
  </g>
  <g class="st11">
    <path class="st3" d="M218.1,421.8H57.9M218.1,370.7H57.9M218.1,319.6H57.9M218.1,268.5H57.9M218.1,217.4H57.9M218.1,166.2H57.9M218.1,115.1H57.9"/>
  </g>
  <polyline class="st1" points="178 115.1 146 166.2 130 217.4 150.1 268.5 73.9 319.6 105.9 370.7 118 421.8"/>
  <polyline class="st6" points="161.9 115.1 146 166.2 129.9 217.4 137.9 268.5 146 319.6 154 370.7 161.9 421.8"/>
  <polyline class="st4" points="105.9 115.1 105.9 166.2 194 217.4 194 268.5 162.1 319.6 81.9 370.7 113.9 421.8"/>
  <polyline class="st2" points="146 115.1 130 166.2 97.9 217.4 105.9 268.5 122 319.6 161.9 370.7 130 421.8"/>
  <polyline class="st0" points="170 115.1 154 166.2 97.9 217.4 122 268.5 97.9 319.6 178 370.7 113.9 421.8"/>
</svg>